<?xml version="1.0" encoding="UTF-8" standalone="no"?>
<!DOCTYPE svg PUBLIC "-//W3C//DTD SVG 1.1//EN"
 "http://www.w3.org/Graphics/SVG/1.1/DTD/svg11.dtd">
<!-- Generated by graphviz version 14.0.0 (20250921.2048)
 -->
<!-- Title: Backup Workflow Pages: 1 -->
<svg width="5059pt" height="2292pt"
 viewBox="0.00 0.00 5059.00 2292.00" xmlns="http://www.w3.org/2000/svg" xmlns:xlink="http://www.w3.org/1999/xlink">
<g id="graph0" class="graph" transform="scale(4.16667 4.16667) rotate(0) translate(36 514.15)">
<title>Backup Workflow</title>
<polygon fill="white" stroke="none" points="-36,36 -36,-514.15 1178.2,-514.15 1178.2,36 -36,36"/>
<text xml:space="preserve" text-anchor="middle" x="571.1" y="-5.5" font-family="Sans-Serif" font-size="15.00" fill="#2d3436">Backup Workflow</text>
<g id="clust1" class="cluster">
<title>cluster_MySQL Pod</title>
<path fill="#e5f5fd" stroke="#aeb6be" d="M671.35,-297.15C671.35,-297.15 1122.2,-297.15 1122.2,-297.15 1128.2,-297.15 1134.2,-303.15 1134.2,-309.15 1134.2,-309.15 1134.2,-458.15 1134.2,-458.15 1134.2,-464.15 1128.2,-470.15 1122.2,-470.15 1122.2,-470.15 671.35,-470.15 671.35,-470.15 665.35,-470.15 659.35,-464.15 659.35,-458.15 659.35,-458.15 659.35,-309.15 659.35,-309.15 659.35,-303.15 665.35,-297.15 671.35,-297.15"/>
<text xml:space="preserve" text-anchor="middle" x="699.6" y="-454.75" font-family="Sans-Serif" font-size="12.00" fill="#2d3436">MySQL Pod</text>
</g>
<!-- a58cb6792e964f46a0821a600649c218 -->
<g id="node1" class="node">
<title>a58cb6792e964f46a0821a600649c218</title>
<image xlink:href="/Users/anastasia/Documents/Venvs/MkDocs/lib/python3.11/site-packages/resources/k8s/others/crd.png" width="100.8px" height="100.8px" preserveAspectRatio="xMinYMin meet" x="8.52651e-14" y="-423.55"/>
<text xml:space="preserve" text-anchor="middle" x="50.4" y="-305.9" font-family="Sans-Serif" font-size="13.00" fill="#2d3436">Operator</text>
</g>
<!-- 0405755128494ee6beef5902bcae1246 -->
<g id="node2" class="node">
<title>0405755128494ee6beef5902bcae1246</title>
<image xlink:href="/Users/anastasia/Documents/Venvs/MkDocs/lib/python3.11/site-packages/resources/k8s/compute/job.png" width="100.8px" height="100.8px" preserveAspectRatio="xMinYMin meet" x="351.3" y="-423.55"/>
<text xml:space="preserve" text-anchor="middle" x="401.7" y="-305.9" font-family="Sans-Serif" font-size="13.00" fill="#2d3436">Backup Pod</text>
</g>
<!-- a58cb6792e964f46a0821a600649c218&#45;&gt;0405755128494ee6beef5902bcae1246 -->
<g id="edge2" class="edge">
<title>a58cb6792e964f46a0821a600649c218&#45;&gt;0405755128494ee6beef5902bcae1246</title>
<path fill="none" stroke="black" stroke-width="2" d="M100.73,-373.15C100.73,-373.15 339.95,-373.15 339.95,-373.15"/>
<polygon fill="black" stroke="black" stroke-width="2" points="338.43,-376.65 348.43,-373.15 338.43,-369.65 338.43,-376.65"/>
<text xml:space="preserve" text-anchor="middle" x="226.05" y="-374.3" font-family="Sans-Serif" font-size="13.00" fill="#2d3436">Backup Job</text>
</g>
<!-- 53778995092b41a582c56e1362a2bb72 -->
<g id="node3" class="node">
<title>53778995092b41a582c56e1362a2bb72</title>
<image xlink:href="/Users/anastasia/Documents/Venvs/MkDocs/lib/python3.11/site-packages/resources/k8s/compute/pod.png" width="100.8px" height="100.8px" preserveAspectRatio="xMinYMin meet" x="667.35" y="-423.55"/>
<text xml:space="preserve" text-anchor="middle" x="717.75" y="-305.9" font-family="Sans-Serif" font-size="13.00" fill="#2d3436">Xtrabackup</text>
</g>
<!-- 0405755128494ee6beef5902bcae1246&#45;&gt;53778995092b41a582c56e1362a2bb72 -->
<g id="edge3" class="edge">
<title>0405755128494ee6beef5902bcae1246&#45;&gt;53778995092b41a582c56e1362a2bb72</title>
<path fill="none" stroke="black" stroke-width="2" d="M451.78,-373.15C451.78,-373.15 655.87,-373.15 655.87,-373.15"/>
<polygon fill="black" stroke="black" stroke-width="2" points="654.36,-376.65 664.36,-373.15 654.36,-369.65 654.36,-376.65"/>
<text xml:space="preserve" text-anchor="middle" x="559.73" y="-374.3" font-family="Sans-Serif" font-size="13.00" fill="#2d3436">HTTP</text>
</g>
<!-- 38f8a3ab5ecc469e83489484f934622b -->
<g id="node4" class="node">
<title>38f8a3ab5ecc469e83489484f934622b</title>
<image xlink:href="/Users/anastasia/Documents/Venvs/MkDocs/lib/python3.11/site-packages/resources/k8s/compute/pod.png" width="100.8px" height="100.8px" preserveAspectRatio="xMinYMin meet" x="1025.4" y="-423.55"/>
<text xml:space="preserve" text-anchor="middle" x="1075.8" y="-305.9" font-family="Sans-Serif" font-size="13.00" fill="#2d3436">MySQL</text>
</g>
<!-- 53778995092b41a582c56e1362a2bb72&#45;&gt;38f8a3ab5ecc469e83489484f934622b -->
<g id="edge1" class="edge">
<title>53778995092b41a582c56e1362a2bb72&#45;&gt;38f8a3ab5ecc469e83489484f934622b</title>
<path fill="none" stroke="#7b8894" d="M767.91,-373.15C767.91,-373.15 1013.89,-373.15 1013.89,-373.15"/>
<polygon fill="#7b8894" stroke="#7b8894" points="1013.89,-376.65 1023.89,-373.15 1013.89,-369.65 1013.89,-376.65"/>
</g>
<!-- e5c95e1282d94cc4ac8bb5abf1e3b724 -->
<g id="node5" class="node">
<title>e5c95e1282d94cc4ac8bb5abf1e3b724</title>
<image xlink:href="/Users/anastasia/Documents/Venvs/MkDocs/lib/python3.11/site-packages/resources/generic/storage/storage.png" width="100.8px" height="100.8px" preserveAspectRatio="xMinYMin meet" x="1025.4" y="-142.55"/>
<text xml:space="preserve" text-anchor="middle" x="1075.8" y="-24.9" font-family="Sans-Serif" font-size="13.00" fill="#2d3436">Cloud Storage</text>
</g>
<!-- 53778995092b41a582c56e1362a2bb72&#45;&gt;e5c95e1282d94cc4ac8bb5abf1e3b724 -->
<g id="edge4" class="edge">
<title>53778995092b41a582c56e1362a2bb72&#45;&gt;e5c95e1282d94cc4ac8bb5abf1e3b724</title>
<path fill="none" stroke="black" stroke-width="2" d="M718.2,-304.77C718.2,-221.59 718.2,-92.15 718.2,-92.15 718.2,-92.15 1014.19,-92.15 1014.19,-92.15"/>
<polygon fill="black" stroke="black" stroke-width="2" points="1012.67,-95.65 1022.67,-92.15 1012.67,-88.65 1012.67,-95.65"/>
<text xml:space="preserve" text-anchor="middle" x="896.78" y="-93.3" font-family="Sans-Serif" font-size="13.00" fill="#2d3436">Backup Data</text>
</g>
</g>
</svg>
