<svg viewBox="0 0 1600 700" width="1600" height="700" xmlns="http://www.w3.org/2000/svg" font-family="'DejaVu Sans', Arial, sans-serif">
<defs>
<marker id="arr" viewBox="0 0 10 10" refX="9" refY="5" markerWidth="7" markerHeight="7" orient="auto-start-reverse">
  <path d="M0,0 L10,5 L0,10 z" fill="#24303E"/>
</marker>
<marker id="arrAmber" viewBox="0 0 10 10" refX="9" refY="5" markerWidth="8" markerHeight="8" orient="auto-start-reverse">
  <path d="M0,0 L10,5 L0,10 z" fill="#D97706"/>
</marker>
</defs>
<rect x="0" y="0" width="1600" height="700" fill="#FFFFFF"/>
<g><rect x="146" y="22" width="52" height="38" rx="6" fill="#FFFFFF" stroke="#24303E" stroke-width="1.6"/><rect x="146" y="22" width="52" height="11" rx="6" fill="#24303E"/><rect x="146" y="30" width="52" height="4" fill="#24303E"/><circle cx="155" cy="27.5" r="2" fill="#FFFFFF"/><circle cx="163" cy="27.5" r="2" fill="#FFFFFF"/><circle cx="171" cy="27.5" r="2" fill="#FFFFFF"/><line x1="154" y1="44" x2="176" y2="44" stroke="#C3CCD6" stroke-width="2.5" stroke-linecap="round"/><line x1="154" y1="51" x2="186" y2="51" stroke="#C3CCD6" stroke-width="2.5" stroke-linecap="round"/><text x="172" y="80" text-anchor="middle" font-size="14" fill="#5D6B7A">Reporting Application</text></g>
<g><rect x="362" y="22" width="52" height="38" rx="6" fill="#FFFFFF" stroke="#24303E" stroke-width="1.6"/><rect x="362" y="22" width="52" height="11" rx="6" fill="#24303E"/><rect x="362" y="30" width="52" height="4" fill="#24303E"/><circle cx="371" cy="27.5" r="2" fill="#FFFFFF"/><circle cx="379" cy="27.5" r="2" fill="#FFFFFF"/><circle cx="387" cy="27.5" r="2" fill="#FFFFFF"/><line x1="370" y1="44" x2="392" y2="44" stroke="#C3CCD6" stroke-width="2.5" stroke-linecap="round"/><line x1="370" y1="51" x2="402" y2="51" stroke="#C3CCD6" stroke-width="2.5" stroke-linecap="round"/><text x="388" y="80" text-anchor="middle" font-size="14" fill="#5D6B7A">Application</text></g>
<line x1="172" y1="88" x2="172" y2="122" stroke="#24303E" stroke-width="1.6" marker-end="url(#arr)"/>
<line x1="388" y1="88" x2="388" y2="122" stroke="#24303E" stroke-width="1.6" marker-end="url(#arr)"/>
<g><rect x="76" y="126" width="192" height="60" rx="10" fill="#FFFFFF" stroke="#C3CCD6" stroke-width="1.6"/><rect x="76" y="126" width="4" height="60" rx="2" fill="#24303E"/><path d="M 89,163 L 103,149 M 89,149 L 103,163" stroke="#5D6B7A" stroke-width="2" stroke-linecap="round" fill="none"/><circle cx="96" cy="156" r="3" fill="#5D6B7A"/><text x="116" y="152" font-size="15" font-weight="bold" fill="#24303E">HAProxy</text><text x="116" y="172" font-size="13" fill="#5D6B7A">Target: <tspan font-weight="bold" fill="#24303E">Lisbon</tspan></text></g>
<g><rect x="292" y="126" width="192" height="60" rx="10" fill="#FFFFFF" stroke="#C3CCD6" stroke-width="1.6"/><rect x="292" y="126" width="4" height="60" rx="2" fill="#24303E"/><path d="M 305,163 L 319,149 M 305,149 L 319,163" stroke="#5D6B7A" stroke-width="2" stroke-linecap="round" fill="none"/><circle cx="312" cy="156" r="3" fill="#5D6B7A"/><text x="332" y="152" font-size="15" font-weight="bold" fill="#24303E">HAProxy</text><text x="332" y="172" font-size="13" fill="#5D6B7A">Target: <tspan font-weight="bold" fill="#24303E">PRIMARY</tspan></text></g>
<g><rect x="666" y="22" width="52" height="38" rx="6" fill="#FFFFFF" stroke="#24303E" stroke-width="1.6"/><rect x="666" y="22" width="52" height="11" rx="6" fill="#24303E"/><rect x="666" y="30" width="52" height="4" fill="#24303E"/><circle cx="675" cy="27.5" r="2" fill="#FFFFFF"/><circle cx="683" cy="27.5" r="2" fill="#FFFFFF"/><circle cx="691" cy="27.5" r="2" fill="#FFFFFF"/><line x1="674" y1="44" x2="696" y2="44" stroke="#C3CCD6" stroke-width="2.5" stroke-linecap="round"/><line x1="674" y1="51" x2="706" y2="51" stroke="#C3CCD6" stroke-width="2.5" stroke-linecap="round"/><text x="692" y="80" text-anchor="middle" font-size="14" fill="#5D6B7A">Reporting Application</text></g>
<g><rect x="882" y="22" width="52" height="38" rx="6" fill="#FFFFFF" stroke="#24303E" stroke-width="1.6"/><rect x="882" y="22" width="52" height="11" rx="6" fill="#24303E"/><rect x="882" y="30" width="52" height="4" fill="#24303E"/><circle cx="891" cy="27.5" r="2" fill="#FFFFFF"/><circle cx="899" cy="27.5" r="2" fill="#FFFFFF"/><circle cx="907" cy="27.5" r="2" fill="#FFFFFF"/><line x1="890" y1="44" x2="912" y2="44" stroke="#C3CCD6" stroke-width="2.5" stroke-linecap="round"/><line x1="890" y1="51" x2="922" y2="51" stroke="#C3CCD6" stroke-width="2.5" stroke-linecap="round"/><text x="908" y="80" text-anchor="middle" font-size="14" fill="#5D6B7A">Application</text></g>
<line x1="692" y1="88" x2="692" y2="122" stroke="#24303E" stroke-width="1.6" marker-end="url(#arr)"/>
<line x1="908" y1="88" x2="908" y2="122" stroke="#24303E" stroke-width="1.6" marker-end="url(#arr)"/>
<g><rect x="596" y="126" width="192" height="60" rx="10" fill="#FFFFFF" stroke="#C3CCD6" stroke-width="1.6"/><rect x="596" y="126" width="4" height="60" rx="2" fill="#24303E"/><path d="M 609,163 L 623,149 M 609,149 L 623,163" stroke="#5D6B7A" stroke-width="2" stroke-linecap="round" fill="none"/><circle cx="616" cy="156" r="3" fill="#5D6B7A"/><text x="636" y="152" font-size="15" font-weight="bold" fill="#24303E">HAProxy</text><text x="636" y="172" font-size="13" fill="#5D6B7A">Target: <tspan font-weight="bold" fill="#24303E">Rome</tspan></text></g>
<g><rect x="812" y="126" width="192" height="60" rx="10" fill="#FFFFFF" stroke="#C3CCD6" stroke-width="1.6"/><rect x="812" y="126" width="4" height="60" rx="2" fill="#24303E"/><path d="M 825,163 L 839,149 M 825,149 L 839,163" stroke="#5D6B7A" stroke-width="2" stroke-linecap="round" fill="none"/><circle cx="832" cy="156" r="3" fill="#5D6B7A"/><text x="852" y="152" font-size="15" font-weight="bold" fill="#24303E">HAProxy</text><text x="852" y="172" font-size="13" fill="#5D6B7A">Target: <tspan font-weight="bold" fill="#24303E">PRIMARY</tspan></text></g>
<g><rect x="1186" y="22" width="52" height="38" rx="6" fill="#FFFFFF" stroke="#24303E" stroke-width="1.6"/><rect x="1186" y="22" width="52" height="11" rx="6" fill="#24303E"/><rect x="1186" y="30" width="52" height="4" fill="#24303E"/><circle cx="1195" cy="27.5" r="2" fill="#FFFFFF"/><circle cx="1203" cy="27.5" r="2" fill="#FFFFFF"/><circle cx="1211" cy="27.5" r="2" fill="#FFFFFF"/><line x1="1194" y1="44" x2="1216" y2="44" stroke="#C3CCD6" stroke-width="2.5" stroke-linecap="round"/><line x1="1194" y1="51" x2="1226" y2="51" stroke="#C3CCD6" stroke-width="2.5" stroke-linecap="round"/><text x="1212" y="80" text-anchor="middle" font-size="14" fill="#5D6B7A">Application</text></g>
<g><rect x="1402" y="22" width="52" height="38" rx="6" fill="#FFFFFF" stroke="#24303E" stroke-width="1.6"/><rect x="1402" y="22" width="52" height="11" rx="6" fill="#24303E"/><rect x="1402" y="30" width="52" height="4" fill="#24303E"/><circle cx="1411" cy="27.5" r="2" fill="#FFFFFF"/><circle cx="1419" cy="27.5" r="2" fill="#FFFFFF"/><circle cx="1427" cy="27.5" r="2" fill="#FFFFFF"/><line x1="1410" y1="44" x2="1432" y2="44" stroke="#C3CCD6" stroke-width="2.5" stroke-linecap="round"/><line x1="1410" y1="51" x2="1442" y2="51" stroke="#C3CCD6" stroke-width="2.5" stroke-linecap="round"/><text x="1428" y="80" text-anchor="middle" font-size="14" fill="#5D6B7A">Reporting Application</text></g>
<line x1="1212" y1="88" x2="1212" y2="122" stroke="#24303E" stroke-width="1.6" marker-end="url(#arr)"/>
<line x1="1428" y1="88" x2="1428" y2="122" stroke="#24303E" stroke-width="1.6" marker-end="url(#arr)"/>
<g><rect x="1116" y="126" width="192" height="60" rx="10" fill="#FFFFFF" stroke="#C3CCD6" stroke-width="1.6"/><rect x="1116" y="126" width="4" height="60" rx="2" fill="#24303E"/><path d="M 1129,163 L 1143,149 M 1129,149 L 1143,163" stroke="#5D6B7A" stroke-width="2" stroke-linecap="round" fill="none"/><circle cx="1136" cy="156" r="3" fill="#5D6B7A"/><text x="1156" y="152" font-size="15" font-weight="bold" fill="#24303E">HAProxy</text><text x="1156" y="172" font-size="13" fill="#5D6B7A">Target: <tspan font-weight="bold" fill="#24303E">PRIMARY</tspan></text></g>
<g><rect x="1332" y="126" width="192" height="60" rx="10" fill="#FFFFFF" stroke="#C3CCD6" stroke-width="1.6"/><rect x="1332" y="126" width="4" height="60" rx="2" fill="#24303E"/><path d="M 1345,163 L 1359,149 M 1345,149 L 1359,163" stroke="#5D6B7A" stroke-width="2" stroke-linecap="round" fill="none"/><circle cx="1352" cy="156" r="3" fill="#5D6B7A"/><text x="1372" y="152" font-size="15" font-weight="bold" fill="#24303E">HAProxy</text><text x="1372" y="172" font-size="13" fill="#5D6B7A">Target: <tspan font-weight="bold" fill="#24303E">Brussels</tspan></text></g>
<path d="M 172,186 C 172,241 198.5,226 225,296" fill="none" stroke="#24303E" stroke-width="1.6" marker-end="url(#arr)"/>
<path d="M 692,186 C 692,241 718.5,226 745,296" fill="none" stroke="#24303E" stroke-width="1.6" marker-end="url(#arr)"/>
<text x="682" y="252" font-size="13" font-style="italic" fill="#5D6B7A">Read Only</text>
<path d="M 908,186 C 908,241 881.5,226 855,296" fill="none" stroke="#24303E" stroke-width="1.6" marker-end="url(#arr)"/>
<text x="870" y="252" font-size="13" font-style="italic" font-weight="bold" fill="#1F8A70">Read/Write</text>
<path d="M 1428,186 C 1428,241 1401.5,226 1375,296" fill="none" stroke="#24303E" stroke-width="1.6" marker-end="url(#arr)"/>
<path d="M 388,186 C 388,250 470,282 591,299" fill="none" stroke="#24303E" stroke-width="1.6" marker-end="url(#arr)"/>
<path d="M 1212,186 C 1212,250 1130,282 1009,299" fill="none" stroke="#24303E" stroke-width="1.6" marker-end="url(#arr)"/>
<path d="M 736,384 C 640,346 400,346 346,382" fill="none" stroke="#D97706" stroke-width="2.4" stroke-dasharray="8 7" marker-end="url(#arrAmber)"/>
<path d="M 864,384 C 960,346 1200,346 1254,382" fill="none" stroke="#D97706" stroke-width="2.4" stroke-dasharray="8 7" marker-end="url(#arrAmber)"/>
<g><rect x="73" y="300" width="414" height="280" rx="20" fill="#F3F5F9" stroke="#66748C" stroke-width="1.8"/><text x="95" y="332" font-size="13" letter-spacing="2" fill="#5D6B7A">MYSQL INNODB CLUSTER</text><rect x="379" y="314" width="90" height="26" rx="13" fill="#66748C"/><text x="424.0" y="332" text-anchor="middle" font-size="13" font-weight="bold" fill="#FFFFFF" letter-spacing="1">REPLICA</text><line x1="280" y1="392" x2="172" y2="508" stroke="#AEB9CB" stroke-width="2" stroke-dasharray="2 6" stroke-linecap="round"/><line x1="280" y1="392" x2="388" y2="508" stroke="#AEB9CB" stroke-width="2" stroke-dasharray="2 6" stroke-linecap="round"/><line x1="172" y1="508" x2="388" y2="508" stroke="#AEB9CB" stroke-width="2" stroke-dasharray="2 6" stroke-linecap="round"/><g><path d="M 218,369.0 A 62,12 0 0 0 342,369.0 L 342,415.0 A 62,12 0 0 1 218,415.0 Z" fill="#DEE5F0" stroke="#56637A" stroke-width="2"/><ellipse cx="280" cy="369.0" rx="62" ry="12" fill="#DEE5F0" stroke="#56637A" stroke-width="2"/><text x="280" y="405" text-anchor="middle" font-size="15" font-weight="bold" fill="#24303E">Primary</text></g><g><path d="M 110,485.0 A 62,12 0 0 0 234,485.0 L 234,531.0 A 62,12 0 0 1 110,531.0 Z" fill="#FFFFFF" stroke="#AEB9CB" stroke-width="2"/><ellipse cx="172" cy="485.0" rx="62" ry="12" fill="#FFFFFF" stroke="#AEB9CB" stroke-width="2"/><text x="172" y="521" text-anchor="middle" font-size="15" font-weight="bold" fill="#24303E">Secondary</text></g><g><path d="M 326,485.0 A 62,12 0 0 0 450,485.0 L 450,531.0 A 62,12 0 0 1 326,531.0 Z" fill="#FFFFFF" stroke="#AEB9CB" stroke-width="2"/><ellipse cx="388" cy="485.0" rx="62" ry="12" fill="#FFFFFF" stroke="#AEB9CB" stroke-width="2"/><text x="388" y="521" text-anchor="middle" font-size="15" font-weight="bold" fill="#24303E">Secondary</text></g><text x="280" y="620" text-anchor="middle" font-size="26" font-weight="bold" fill="#24303E">Lisbon</text></g>
<g><rect x="593" y="300" width="414" height="280" rx="20" fill="#EDF6F2" stroke="#1F8A70" stroke-width="1.8"/><text x="615" y="332" font-size="13" letter-spacing="2" fill="#5D6B7A">MYSQL INNODB CLUSTER</text><rect x="893" y="314" width="96" height="26" rx="13" fill="#1F8A70"/><text x="941.0" y="332" text-anchor="middle" font-size="13" font-weight="bold" fill="#FFFFFF" letter-spacing="1">PRIMARY</text><line x1="800" y1="392" x2="692" y2="508" stroke="#8FC4B4" stroke-width="2" stroke-dasharray="2 6" stroke-linecap="round"/><line x1="800" y1="392" x2="908" y2="508" stroke="#8FC4B4" stroke-width="2" stroke-dasharray="2 6" stroke-linecap="round"/><line x1="692" y1="508" x2="908" y2="508" stroke="#8FC4B4" stroke-width="2" stroke-dasharray="2 6" stroke-linecap="round"/><g><path d="M 738,369.0 A 62,12 0 0 0 862,369.0 L 862,415.0 A 62,12 0 0 1 738,415.0 Z" fill="#1F8A70" stroke="#166B57" stroke-width="2"/><ellipse cx="800" cy="369.0" rx="62" ry="12" fill="#1F8A70" stroke="#166B57" stroke-width="2"/><text x="800" y="405" text-anchor="middle" font-size="15" font-weight="bold" fill="#FFFFFF">Primary</text></g><g><path d="M 630,485.0 A 62,12 0 0 0 754,485.0 L 754,531.0 A 62,12 0 0 1 630,531.0 Z" fill="#FFFFFF" stroke="#8FC4B4" stroke-width="2"/><ellipse cx="692" cy="485.0" rx="62" ry="12" fill="#FFFFFF" stroke="#8FC4B4" stroke-width="2"/><text x="692" y="521" text-anchor="middle" font-size="15" font-weight="bold" fill="#24303E">Secondary</text></g><g><path d="M 846,485.0 A 62,12 0 0 0 970,485.0 L 970,531.0 A 62,12 0 0 1 846,531.0 Z" fill="#FFFFFF" stroke="#8FC4B4" stroke-width="2"/><ellipse cx="908" cy="485.0" rx="62" ry="12" fill="#FFFFFF" stroke="#8FC4B4" stroke-width="2"/><text x="908" y="521" text-anchor="middle" font-size="15" font-weight="bold" fill="#24303E">Secondary</text></g><text x="800" y="620" text-anchor="middle" font-size="26" font-weight="bold" fill="#24303E">Rome</text></g>
<g><rect x="1113" y="300" width="414" height="280" rx="20" fill="#F3F5F9" stroke="#66748C" stroke-width="1.8"/><text x="1135" y="332" font-size="13" letter-spacing="2" fill="#5D6B7A">MYSQL INNODB CLUSTER</text><rect x="1419" y="314" width="90" height="26" rx="13" fill="#66748C"/><text x="1464.0" y="332" text-anchor="middle" font-size="13" font-weight="bold" fill="#FFFFFF" letter-spacing="1">REPLICA</text><line x1="1320" y1="392" x2="1212" y2="508" stroke="#AEB9CB" stroke-width="2" stroke-dasharray="2 6" stroke-linecap="round"/><line x1="1320" y1="392" x2="1428" y2="508" stroke="#AEB9CB" stroke-width="2" stroke-dasharray="2 6" stroke-linecap="round"/><line x1="1212" y1="508" x2="1428" y2="508" stroke="#AEB9CB" stroke-width="2" stroke-dasharray="2 6" stroke-linecap="round"/><g><path d="M 1258,369.0 A 62,12 0 0 0 1382,369.0 L 1382,415.0 A 62,12 0 0 1 1258,415.0 Z" fill="#DEE5F0" stroke="#56637A" stroke-width="2"/><ellipse cx="1320" cy="369.0" rx="62" ry="12" fill="#DEE5F0" stroke="#56637A" stroke-width="2"/><text x="1320" y="405" text-anchor="middle" font-size="15" font-weight="bold" fill="#24303E">Primary</text></g><g><path d="M 1150,485.0 A 62,12 0 0 0 1274,485.0 L 1274,531.0 A 62,12 0 0 1 1150,531.0 Z" fill="#FFFFFF" stroke="#AEB9CB" stroke-width="2"/><ellipse cx="1212" cy="485.0" rx="62" ry="12" fill="#FFFFFF" stroke="#AEB9CB" stroke-width="2"/><text x="1212" y="521" text-anchor="middle" font-size="15" font-weight="bold" fill="#24303E">Secondary</text></g><g><path d="M 1366,485.0 A 62,12 0 0 0 1490,485.0 L 1490,531.0 A 62,12 0 0 1 1366,531.0 Z" fill="#FFFFFF" stroke="#AEB9CB" stroke-width="2"/><ellipse cx="1428" cy="485.0" rx="62" ry="12" fill="#FFFFFF" stroke="#AEB9CB" stroke-width="2"/><text x="1428" y="521" text-anchor="middle" font-size="15" font-weight="bold" fill="#24303E">Secondary</text></g><text x="1320" y="620" text-anchor="middle" font-size="26" font-weight="bold" fill="#24303E">Brussels</text></g>
<path d="M 736,384 C 640,346 400,346 346,382" fill="none" stroke="#D97706" stroke-width="2.4" stroke-dasharray="8 7" marker-end="url(#arrAmber)"/>
<path d="M 864,384 C 960,346 1200,346 1254,382" fill="none" stroke="#D97706" stroke-width="2.4" stroke-dasharray="8 7" marker-end="url(#arrAmber)"/>
<text x="540" y="330" text-anchor="middle" font-size="14" font-style="italic" font-weight="bold" fill="#B45309" stroke="#FFFFFF" stroke-width="5" paint-order="stroke" stroke-linejoin="round"><tspan x="540" dy="0">Async</tspan><tspan x="540" dy="18">Replication</tspan></text>
<text x="1060" y="330" text-anchor="middle" font-size="14" font-style="italic" font-weight="bold" fill="#B45309" stroke="#FFFFFF" stroke-width="5" paint-order="stroke" stroke-linejoin="round"><tspan x="1060" dy="0">Async</tspan><tspan x="1060" dy="18">Replication</tspan></text>
</svg>